#!OML:ASF X:\für Bonn\!DataBase\2005_08_10_Bjorn_Final\c3d\bjorn.ASF
:FULLY-SPECIFIED
:DEGREES
47
root 0.539212 19.1697 2.77478 -179.639 3.53011 -178.269
lowerback -9.64633 2.50673 4.56417
upperback 5.90977 2.87007 0.0812612
thorax 12.0964 1.80252 -1.88439
lowerneck 5.47358 -3.71732 4.04747
upperneck 22.5052 -7.82447 -1.95521
head 5.73868 -4.69498 -1.64716
rclavicle -1.41013e-014 -6.95746e-015
rhumerus -1377.6 -11.8139 1412.26
rradius 26.2082
rwrist 26.7327
rhand -20.3025 15.4337
rfingers 7.12502
rthumb 6.04773 -14.46
lclavicle -1.41013e-014 -6.95746e-015
lhumerus 74.8168 11.3721 31.3115
lradius 22.1317
lwrist -33.4066
lhand -26.6581 2.69939
lfingers 7.12502
lthumb -0.0899145 32.6791
rfemur -11.1053 -6.27656 15.1969
rtibia 29.0028
rfoot -14.8969 11.5043
rtoes -19.8644
lfemur -8.62665 3.95677 -13.9433
ltibia 29.702
lfoot -15.0868 -6.17726
ltoes -8.69894
48
root 0.541824 19.1661 2.70298 -179.443 3.48055 -178.267
lowerback -10.121 2.47934 4.44219
upperback 5.3127 2.78881 0.0234372
thorax 11.6938 1.71886 -1.89919
lowerneck 6.43578 -3.68846 4.24196
upperneck 23.1572 -8.05335 -2.01994
head 5.7829 -4.89452 -1.70018
rclavicle 3.57067e-014 -1.2921e-015
rhumerus -1378.22 -12.8835 1413.96
rradius 26.4876
rwrist 26.0903
rhand -20.481 15.4682
rfingers 7.12502
rthumb 5.87549 -14.4303
lclavicle 3.57067e-014 -1.2921e-015
lhumerus 74.5827 12.901 31.3753
lradius 22.0243
lwrist -34.3842
lhand -26.2994 2.69352
lfingers 7.12502
lthumb 0.25658 32.6731
rfemur -11.0941 -6.27616 15.1893
rtibia 29.0595
rfoot -15.1135 11.5025
rtoes -20.2211
lfemur -8.59631 3.92645 -13.9392
ltibia 29.7023
lfoot -15.2443 -6.2475
ltoes -8.52952
49
root 0.543704 19.1638 2.63251 -179.19 3.44309 -178.287
lowerback -10.5906 2.44057 4.30362
upperback 4.67638 2.70452 -0.0327381
thorax 11.2455 1.63514 -1.90346
lowerneck 7.55605 -3.64513 4.39822
upperneck 23.619 -8.2456 -2.04318
head 5.74762 -5.07826 -1.7195
rclavicle -2.24099e-014 4.55962e-015
rhumerus -1378.87 -13.9065 1415.63
rradius 26.6811
rwrist 25.1873
rhand -20.646 15.2904
rfingers 7.12502
rthumb 5.71616 -14.6125
lclavicle -2.24099e-014 4.55962e-015
lhumerus 74.1526 14.3967 31.103
lradius 21.9786
lwrist -35.2492
lhand -26.2023 3.07636
lfingers 7.12502
lthumb 0.350325 33.0558
rfemur -11.1471 -6.22507 15.1617
rtibia 29.104
rfoot -15.3381 11.4792
rtoes -20.54
lfemur -8.62812 3.90277 -13.9674
ltibia 29.6929
lfoot -15.3796 -6.31346
ltoes -8.08861
50
root 0.546341 19.1606 2.56301 -178.972 3.41589 -178.287
lowerback -10.9779 2.3929 4.18457
upperback 4.05105 2.62168 -0.0802612
thorax 10.7645 1.55888 -1.91
lowerneck 8.76104 -3.6032 4.55201
upperneck 23.9255 -8.41981 -2.03295
head 5.65421 -5.25048 -1.71715
rclavicle 7.65787e-015 -6.43565e-015
rhumerus -1379.61 -14.9488 1417.31
rradius 26.8274
rwrist 24.4308
rhand -20.5968 15.1017
rfingers 7.12502
rthumb 5.76365 -14.7999
lclavicle 7.65787e-015 -6.43565e-015
lhumerus 73.6415 15.8849 30.6989
lradius 21.952
lwrist -36.0647
lhand -26.1632 3.60968
lfingers 7.12502
lthumb 0.388116 33.5891
rfemur -11.1682 -6.2151 15.1525
rtibia 29.1468
rfoot -15.5292 11.5267
rtoes -20.9224
lfemur -8.62495 3.96439 -13.963
ltibia 29.6789
lfoot -15.5213 -6.40868
ltoes -8.05943
51
root 0.547505 19.1588 2.49454 -178.718 3.39938 -178.289
lowerback -11.3764 2.33808 4.07518
upperback 3.44049 2.538 -0.123802
thorax 10.3103 1.48831 -1.9155
lowerneck 9.89836 -3.56149 4.71762
upperneck 24.2225 -8.58267 -2.06497
head 5.5693 -5.41747 -1.73079
rclavicle 9.75287e-016 -5.71506e-015
rhumerus -1380.29 -16.0741 1418.83
rradius 26.8381
rwrist 23.8735
rhand -20.4809 14.9236
rfingers 7.12502
rthumb 5.87554 -14.9749
lclavicle 9.75287e-016 -5.71506e-015
lhumerus 73.0678 17.3027 30.1742
lradius 21.9104
lwrist -36.1268
lhand -26.3127 4.2936
lfingers 7.12502
lthumb 0.243709 34.2732
rfemur -11.2328 -6.18173 15.1443
rtibia 29.1833
rfoot -15.7263 11.5335
rtoes -21.2481
lfemur -8.65716 3.94771 -13.9729
ltibia 29.6571
lfoot -15.6334 -6.45145
ltoes -7.89608
52
root 0.549654 19.1571 2.42753 -178.474 3.40492 -178.266
lowerback -11.7449 2.29371 3.99768
upperback 2.86853 2.47472 -0.161314
thorax 9.88683 1.43514 -1.92702
lowerneck 10.9615 -3.5071 4.87845
upperneck 24.4926 -8.72569 -2.05053
head 5.49326 -5.56893 -1.72976
rclavicle -4.17448e-015 -7.35503e-015
rhumerus -1381.03 -17.2359 1420.39
rradius 26.7396
rwrist 23.6275
rhand -20.6714 14.3959
rfingers 7.12502
rthumb 5.69157 -15.5076
lclavicle -4.17448e-015 -7.35503e-015
lhumerus 72.4413 18.7148 29.4458
lradius 21.8925
lwrist -35.6429
lhand -26.3698 4.81917
lfingers 7.12502
lthumb 0.188577 34.7988
rfemur -11.2908 -6.1663 15.1613
rtibia 29.2207
rfoot -15.9207 11.5925
rtoes -21.5526
lfemur -8.67151 3.95085 -13.9519
ltibia 29.6333
lfoot -15.7836 -6.49708
ltoes -7.70063
53
root 0.551167 19.1541 2.3623 -178.219 3.42183 -178.244
lowerback -12.1037 2.26385 3.95057
upperback 2.33216 2.43697 -0.224242
thorax 9.50338 1.40163 -1.97626
lowerneck 11.9265 -3.491 5.1284
upperneck 24.7294 -8.89058 -2.07632
head 5.41828 -5.7195 -1.75704
rclavicle 1.47287e-014 -5.1684e-015
rhumerus -1381.89 -18.4495 1421.98
rradius 26.5857
rwrist 23.556
rhand -20.8757 13.8051
rfingers 7.12502
rthumb 5.49438 -16.1037
lclavicle 1.47287e-014 -5.1684e-015
lhumerus 71.6018 20.046 28.1919
lradius 21.8915
lwrist -34.4978
lhand -26.6563 5.2682
lfingers 7.12502
lthumb -0.0881456 35.2479
rfemur -11.3686 -6.08095 15.1838
rtibia 29.2549
rfoot -16.1181 11.5939
rtoes -21.95
lfemur -8.70626 3.94648 -13.9366
ltibia 29.5981
lfoot -15.897 -6.52129
ltoes -7.42056
54
root 0.553034 19.1515 2.29852 -177.975 3.46483 -178.26
lowerback -12.4365 2.21726 3.84717
upperback 1.84475 2.39151 -0.269589
thorax 9.15571 1.36503 -1.97559
lowerneck 12.7472 -3.47182 5.36631
upperneck 24.9375 -9.01702 -2.151
head 5.35551 -5.84495 -1.80071
rclavicle 5.94335e-015 -3.18055e-015
rhumerus -1382.92 -19.5772 1423.93
rradius 26.4897
rwrist 23.0595
rhand -20.919 13.2975
rfingers 7.12502
rthumb 5.45251 -16.6123
lclavicle 5.94335e-015 -3.18055e-015
lhumerus 70.6655 21.4852 26.9715
lradius 21.8575
lwrist -33.7715
lhand -26.9951 5.85339
lfingers 7.12502
lthumb -0.415382 35.8327
rfemur -11.4541 -6.03511 15.1516
rtibia 29.2927
rfoot -16.2794 11.6808
rtoes -22.1964
lfemur -8.7237 4.00283 -13.961
ltibia 29.5591
lfoot -16.0169 -6.59012
ltoes -7.04803
55
root 0.553818 19.1509 2.23566 -177.709 3.50672 -178.283
lowerback -12.8092 2.1835 3.77083
upperback 1.40766 2.36311 -0.329344
thorax 8.89011 1.34275 -1.99932
lowerneck 13.457 -3.4578 5.58832
upperneck 25.1288 -9.14111 -2.18568
head 5.30761 -5.96051 -1.8321
rclavicle -1.84419e-015 1.17283e-014
rhumerus -1383.98 -20.87 1425.53
rradius 26.4077
rwrist 22.6893
rhand -20.9606 12.7301
rfingers 7.12502
rthumb 5.41242 -17.1807
lclavicle -1.84419e-015 1.17283e-014
lhumerus 69.7719 22.9912 25.8243
lradius 21.8308
lwrist -32.9922
lhand -27.224 6.39395
lfingers 7.12502
lthumb -0.636455 36.3727
rfemur -11.564 -5.93731 15.1175
rtibia 29.332
rfoot -16.4501 11.6919
rtoes -22.5019
lfemur -8.77122 4.00007 -14.0034
ltibia 29.5092
lfoot -16.1185 -6.58455
ltoes -6.78335
56
root 0.555071 19.1482 2.1748 -177.481 3.51834 -178.347
lowerback -13.1609 2.12476 3.63669
upperback 1.05036 2.31289 -0.386068
thorax 8.69534 1.31046 -1.99068
lowerneck 13.9876 -3.45547 5.84836
upperneck 25.3366 -9.24893 -2.28553
head 5.28696 -6.05744 -1.89701
rclavicle -1.11847e-014 -2.18663e-015
rhumerus -1384.88 -22.4414 1426.57
rradius 26.3056
rwrist 22.4857
rhand -20.9262 12.28
rfingers 7.12502
rthumb 5.44557 -17.6301
lclavicle -1.11847e-014 -2.18663e-015
lhumerus 69.0832 24.6959 25.1648
lradius 21.7671
lwrist -32.5982
lhand -27.1902 6.73608
lfingers 7.12502
lthumb -0.603803 36.715
rfemur -11.6343 -5.88458 15.0274
rtibia 29.3737
rfoot -16.6002 11.7781
rtoes -22.5906
lfemur -8.77661 3.98596 -14.0853
ltibia 29.4461
lfoot -16.2326 -6.604
ltoes -6.59669
57
root 0.556425 19.1471 2.11404 -177.229 3.54203 -178.414
lowerback -13.5381 2.07082 3.50815
upperback 0.714565 2.27003 -0.435669
thorax 8.53903 1.28429 -1.97478
lowerneck 14.4781 -3.45664 6.08915
upperneck 25.4885 -9.33003 -2.41369
head 5.25355 -6.13663 -1.96611
rclavicle 5.45664e-014 -4.77083e-015
rhumerus -1385.61 -24.2334 1427.11
rradius 26.1576
rwrist 22.5992
rhand -20.7826 11.8647
rfingers 7.12502
rthumb 5.58422 -18.0417
lclavicle 5.45664e-014 -4.77083e-015
lhumerus 68.5399 26.5394 24.8633
lradius 21.6876
lwrist -32.3619
lhand -26.966 6.93783
lfingers 7.12502
lthumb -0.38729 36.9172
rfemur -11.7313 -5.79671 14.9455
rtibia 29.4093
rfoot -16.7779 11.7945
rtoes -22.8738
lfemur -8.80941 4.03357 -14.1663
ltibia 29.3682
lfoot -16.3009 -6.67045
ltoes -6.38592
58
root 0.557771 19.145 2.0533 -177.035 3.6039 -178.498
lowerback -13.8858 2.03275 3.32663
upperback 0.453226 2.25457 -0.449003
thorax 8.44464 1.27017 -1.88391
lowerneck 14.805 -3.47009 6.22658
upperneck 25.6754 -9.44033 -2.49859
head 5.25936 -6.22777 -2.01229
rclavicle -4.81991e-014 -2.18663e-015
rhumerus -1386.1 -26.3095 1427.37
rradius 25.8804
rwrist 23.0183
rhand -20.5301 11.6462
rfingers 7.12502
rthumb 5.82802 -18.2537
lclavicle -4.81991e-014 -2.18663e-015
lhumerus 68.2982 28.5721 25.1988
lradius 21.5387
lwrist -32.8834
lhand -26.6706 7.11052
lfingers 7.12502
lthumb -0.101944 37.0902
rfemur -11.7688 -5.72737 14.8244
rtibia 29.4382
rfoot -16.9523 11.8954
rtoes -23.1259
lfemur -8.75606 4.03439 -14.2744
ltibia 29.2777
lfoot -16.4247 -6.64734
ltoes -6.27457
59
root 0.5589 19.1446 1.99483 -176.854 3.62878 -178.564
lowerback -14.1992 1.97219 3.15996
upperback 0.228777 2.20677 -0.441257
thorax 8.36842 1.24177 -1.78619
lowerneck 15.0191 -3.47423 6.3632
upperneck 25.8559 -9.51263 -2.62084
head 5.27734 -6.29346 -2.07417
rclavicle -2.81529e-014 5.1684e-015
rhumerus -1386.27 -28.6709 1427.02
rradius 25.5676
rwrist 23.5656
rhand -20.0283 11.7605
rfingers 7.12502
rthumb 6.3125 -18.1255
lclavicle -2.81529e-014 5.1684e-015
lhumerus 68.0345 30.6814 25.5656
lradius 21.4115
lwrist -33.3217
lhand -26.3043 7.18551
lfingers 7.12502
lthumb 0.251845 37.1651
rfemur -11.7876 -5.69541 14.7318
rtibia 29.4588
rfoot -17.1163 11.9436
rtoes -23.4639
lfemur -8.70149 4.01656 -14.3569
ltibia 29.173
lfoot -16.4949 -6.64618
ltoes -6.01973
